<svg width="30" height="30" viewBox="0 0 30 30" fill="none" xmlns="http://www.w3.org/2000/svg">
<path d="M29.9933 5.69719C28.8898 6.1875 27.7048 6.51844 26.4589 6.66563C27.7292 5.90438 28.7051 4.69875 29.1655 3.2625C27.9758 3.96656 26.6595 4.48031 25.258 4.755C24.1348 3.55969 22.5355 2.8125 20.7645 2.8125C17.3661 2.8125 14.6126 5.56687 14.6126 8.96531C14.6126 9.44719 14.6661 9.91781 14.7711 10.3678C9.65701 10.1109 5.12326 7.66125 2.08764 3.93844C1.55889 4.84781 1.25514 5.90438 1.25514 7.03219C1.25514 9.16781 2.3417 11.0503 3.9917 12.1547C2.98389 12.1219 2.03514 11.8463 1.20545 11.385C1.20451 11.4103 1.20451 11.4375 1.20451 11.4619C1.20451 14.4441 3.32514 16.9313 6.14045 17.4966C5.62483 17.6363 5.08108 17.7122 4.51951 17.7122C4.12201 17.7122 3.73764 17.6737 3.36264 17.6025C4.14451 20.0456 6.41795 21.825 9.10951 21.8756C7.00483 23.5256 4.3517 24.5109 1.46889 24.5109C0.972013 24.5109 0.4817 24.4819 0.000762939 24.4247C2.72326 26.1684 5.95764 27.1875 9.43295 27.1875C20.7505 27.1875 26.9408 17.8116 26.9408 9.67969C26.9408 9.41344 26.9333 9.14719 26.922 8.88281C28.1248 8.01563 29.1673 6.93281 29.9933 5.69719Z" fill="#55ACEE"/>
</svg>
