<svg width="208" height="70" viewBox="0 0 208 70" fill="none" xmlns="http://www.w3.org/2000/svg">
<path d="M1.51636 50.3568C1.51636 49.0758 1.72416 47.8982 2.13978 46.8242C2.55539 45.7503 3.13386 44.7846 3.87524 43.9273C4.61658 43.0701 5.49835 42.3211 6.52053 41.6806C7.55394 41.0401 8.68284 40.5032 9.90721 40.0695C11.1428 39.6361 12.4514 39.3157 13.833 39.1089C15.2147 38.8922 16.6356 38.7837 18.0958 38.7837C18.972 38.7837 19.8481 38.8329 20.7243 38.9315C21.6117 39.0301 22.471 39.168 23.3022 39.3454C24.1335 39.5228 24.9254 39.7345 25.6779 39.9808C26.4418 40.2272 27.1437 40.4982 27.784 40.7937L29.0646 39.3454H32.8388V46.5581H28.5592C28.0874 45.8192 27.5144 45.164 26.8406 44.5924C26.1777 44.0209 25.4421 43.538 24.6333 43.1439C23.8358 42.7497 22.9821 42.4542 22.0722 42.257C21.1736 42.0501 20.2469 41.9467 19.2921 41.9467C18.2475 41.9467 17.2534 42.1044 16.3098 42.4197C15.3663 42.735 14.5407 43.2179 13.833 43.8683C13.1254 44.5184 12.5637 45.3462 12.1481 46.3513C11.7325 47.3464 11.5247 48.5288 11.5247 49.8986C11.5247 51.209 11.7494 52.3669 12.1987 53.3719C12.6592 54.3672 13.2714 55.2047 14.0352 55.8847C14.799 56.5547 15.6864 57.0621 16.6974 57.4071C17.7196 57.7518 18.7923 57.9244 19.9156 57.9244C20.904 57.9244 21.7577 57.8651 22.4766 57.747C23.1955 57.619 23.847 57.3972 24.4311 57.0819V53.3868L19.528 49.2482H33.0578V60.5405H29.0646L28.1379 59.0625C27.4751 59.4369 26.7675 59.757 26.0148 60.0231C25.2624 60.2794 24.4761 60.4862 23.6561 60.6439C22.8361 60.8114 21.9936 60.9298 21.1287 60.9987C20.2638 61.0775 19.3876 61.1169 18.5002 61.1169C16.9838 61.1169 15.5067 61.038 14.0689 60.8804C12.6424 60.7227 11.3 60.4715 10.042 60.1266C8.78392 59.7719 7.63258 59.3187 6.58793 58.7667C5.54329 58.2052 4.64467 57.5302 3.89208 56.742C3.1395 55.9438 2.55539 55.0176 2.13978 53.9632C1.72416 52.9088 1.51636 51.7068 1.51636 50.3568ZM40.2355 56.8307L48.1713 42.9665L44.5488 39.3454H64.2959L61.2464 43.0995L68.3567 56.801L72.788 60.5405H55.0965L58.7695 56.8307L58.0451 55.2787H46.9245L46.1328 56.8307L50.9683 60.5405H35.2818L40.2355 56.8307ZM56.6296 52.1894L52.7713 43.8533L48.5085 52.1894H56.6296ZM77.3541 56.7863V43.0995L72.6195 39.3454H92.6529L86.2334 43.0995V57.1557H95.1635L102.055 51.9235V60.5405H72.6195L77.3541 56.7863ZM104.599 49.9429C104.599 48.5831 104.824 47.3613 105.273 46.2773C105.733 45.1934 106.351 44.2376 107.126 43.41C107.901 42.5822 108.811 41.8778 109.856 41.2963C110.901 40.7052 112.007 40.2272 113.175 39.8627C114.355 39.4883 115.568 39.2171 116.815 39.0498C118.062 38.8724 119.28 38.7837 120.471 38.7837C121.774 38.7837 123.071 38.8724 124.363 39.0498C125.666 39.2171 126.902 39.4883 128.07 39.8627C129.249 40.2272 130.345 40.7052 131.355 41.2963C132.366 41.8778 133.242 42.5822 133.984 43.41C134.736 44.2376 135.32 45.1934 135.736 46.2773C136.163 47.3613 136.376 48.5831 136.376 49.9429C136.376 51.283 136.157 52.49 135.719 53.564C135.281 54.6382 134.68 55.589 133.916 56.4168C133.153 57.2444 132.254 57.9538 131.221 58.5451C130.198 59.1363 129.097 59.6242 127.918 60.0084C126.75 60.3927 125.526 60.6735 124.245 60.8509C122.976 61.0281 121.718 61.1169 120.471 61.1169C119.224 61.1169 117.966 61.0332 116.697 60.8657C115.427 60.6981 114.203 60.432 113.023 60.0675C111.855 59.703 110.755 59.23 109.721 58.6486C108.699 58.0671 107.806 57.3627 107.042 56.5349C106.29 55.7073 105.694 54.7515 105.256 53.6676C104.818 52.5739 104.599 51.3322 104.599 49.9429ZM114.506 49.9429C114.506 51.1056 114.652 52.1846 114.944 53.1797C115.236 54.1652 115.646 55.0224 116.174 55.7517C116.702 56.4809 117.331 57.0522 118.062 57.4661C118.792 57.88 119.595 58.0869 120.471 58.0869C121.347 58.0869 122.15 57.875 122.88 57.4514C123.61 57.0276 124.239 56.4512 124.767 55.722C125.307 54.9928 125.722 54.1356 126.014 53.1503C126.318 52.155 126.469 51.0858 126.469 49.9429C126.469 48.7901 126.329 47.7111 126.048 46.7061C125.767 45.691 125.363 44.8142 124.835 44.0751C124.318 43.3261 123.689 42.7398 122.948 42.3163C122.206 41.8826 121.381 41.6659 120.471 41.6659C119.595 41.6659 118.792 41.8826 118.062 42.3163C117.331 42.7398 116.702 43.3261 116.174 44.0751C115.646 44.8142 115.236 45.691 114.944 46.7061C114.652 47.7111 114.506 48.7901 114.506 49.9429ZM143.638 56.7863V43.0995L138.415 39.3454C139.471 39.3355 140.566 39.3256 141.701 39.3157C142.835 39.3059 143.964 39.301 145.087 39.301C146.211 39.2911 147.306 39.2813 148.373 39.2714C149.44 39.2615 150.44 39.2567 151.372 39.2567C152.316 39.2468 153.169 39.2419 153.933 39.2419C154.697 39.2419 155.332 39.2419 155.837 39.2419C156.904 39.2419 158.022 39.2615 159.19 39.301C160.358 39.3403 161.504 39.429 162.627 39.5671C163.762 39.6952 164.834 39.8921 165.845 40.1583C166.868 40.4145 167.761 40.7643 168.525 41.2076C169.299 41.6413 169.912 42.1832 170.361 42.8336C170.822 43.4739 171.052 44.2475 171.052 45.1541C171.052 45.8438 170.911 46.4646 170.631 47.0164C170.35 47.5682 169.945 48.0609 169.417 48.4944C168.901 48.928 168.272 49.3072 167.53 49.6324C166.789 49.9576 165.963 50.2385 165.053 50.475C165.761 50.5637 166.424 50.7756 167.042 51.1106C167.671 51.4358 168.216 51.8495 168.676 52.3521C169.137 52.8548 169.496 53.436 169.754 54.0963C170.024 54.7563 170.159 55.4658 170.159 56.2246V57.0819L174.893 60.5405H158.314L160.875 57.3921V55.5742C160.875 55.062 160.791 54.5938 160.622 54.17C160.454 53.7366 160.223 53.367 159.931 53.0616C159.639 52.7463 159.297 52.5048 158.904 52.3374C158.522 52.16 158.117 52.0713 157.691 52.0713H152.518V56.7863L155.567 60.5405H138.398L143.638 56.7863ZM154.978 49.1744C156.157 49.1744 157.185 49.13 158.061 49.0413C158.937 48.9526 159.662 48.7851 160.235 48.5387C160.819 48.2923 161.251 47.9524 161.532 47.519C161.813 47.0853 161.953 46.5287 161.953 45.8486C161.953 45.3265 161.852 44.8781 161.65 44.5037C161.448 44.1293 161.173 43.8189 160.824 43.5725C160.476 43.3162 160.066 43.1144 159.594 42.9665C159.134 42.8088 158.645 42.6955 158.129 42.6265C157.612 42.5477 157.084 42.4985 156.545 42.4788C156.005 42.4493 155.483 42.4344 154.978 42.4344H152.518V49.1744H154.978ZM179.965 56.7863V43.0995L175.23 39.3454H205.845L205.508 46.6765L198.785 42.73H188.844V47.6224H198.988V50.8742H188.844V57.1557H198.785L205.677 53.5493V60.5405H175.23L179.965 56.7863Z" fill="url(#paint0_linear_83_10)"/>
<path d="M11.2839 39.7616C8.22425 39.7616 5.77426 39.2571 3.93389 38.2481C2.09352 37.2189 1.17334 35.655 1.17334 33.5562C1.17334 32.4463 1.39188 31.5988 1.82897 31.0135C2.26606 30.4283 2.91019 30.1357 3.76136 30.1357C4.38248 30.1357 4.88858 30.277 5.27966 30.5595C5.67074 30.842 5.86628 31.2053 5.86628 31.6492C5.86628 32.0528 5.83177 32.406 5.76276 32.7087C5.76276 32.7894 5.73975 32.9307 5.69375 33.1325C5.67074 33.3343 5.65924 33.5462 5.65924 33.7681C5.65924 34.6762 6.17684 35.3523 7.21205 35.7962C8.27026 36.2402 9.74256 36.4622 11.6289 36.4622C13.5843 36.4622 15.1141 36.1595 16.2184 35.5541C17.3226 34.9285 17.8747 34.0607 17.8747 32.9508C17.8747 32.2647 17.6216 31.6795 17.1155 31.1952C16.6094 30.6907 15.9768 30.277 15.2177 29.9541C14.4585 29.611 13.3888 29.1973 12.0085 28.713C10.2372 28.1076 8.78786 27.5325 7.66064 26.9876C6.55642 26.4427 5.60173 25.7062 4.79657 24.7779C4.01441 23.8294 3.62333 22.6589 3.62333 21.2665C3.62333 19.8135 4.06042 18.522 4.93459 17.3919C5.83177 16.2618 7.10853 15.384 8.76486 14.7584C10.4442 14.1328 12.4111 13.82 14.6655 13.82C16.3449 13.82 17.8862 14.042 19.2895 14.486C20.6927 14.9098 21.8085 15.5656 22.6366 16.4535C23.4878 17.3415 23.9134 18.4312 23.9134 19.7227C23.9134 20.9941 23.6948 21.9526 23.2578 22.5984C22.8207 23.2442 22.1765 23.5671 21.3254 23.5671C20.7273 23.5671 20.2212 23.4056 19.8071 23.0827C19.416 22.7598 19.2205 22.3764 19.2205 21.9325C19.2205 21.549 19.255 21.1959 19.324 20.873C19.393 20.2676 19.4275 19.8842 19.4275 19.7227C19.4275 18.8752 18.9559 18.2294 18.0127 17.7854C17.0695 17.3415 15.8963 17.1195 14.493 17.1195C12.5146 17.1195 10.9963 17.4424 9.9381 18.0881C8.90289 18.7137 8.38528 19.6016 8.38528 20.7519C8.38528 21.5188 8.64984 22.1746 9.17894 22.7195C9.73105 23.2644 10.4097 23.7184 11.2149 24.0816C12.02 24.4449 13.1472 24.8788 14.5965 25.3833C16.3449 26.0089 17.7482 26.5739 18.8064 27.0784C19.8646 27.5829 20.7618 28.269 21.4979 29.1368C22.2571 30.0045 22.6366 31.0741 22.6366 32.3454C22.6366 34.7267 21.6014 36.5631 19.531 37.8546C17.4836 39.126 14.7346 39.7616 11.2839 39.7616ZM44.3966 32.7692C44.6957 32.7692 44.9257 32.8903 45.0867 33.1325C45.2708 33.3746 45.3628 33.7076 45.3628 34.1314C45.3628 34.9386 45.1442 35.5642 44.7072 36.0081C43.6489 37.0777 42.5562 37.9555 41.429 38.6417C40.3248 39.3278 39.0595 39.6708 37.6332 39.6708C36.46 39.6708 35.5743 39.3782 34.9762 38.793C34.3781 38.1876 34.079 37.3198 34.079 36.1898C34.079 35.6247 34.2401 34.6157 34.5621 33.1627C34.8612 31.8914 35.0107 31.0135 35.0107 30.5292C35.0107 30.2063 34.8842 30.0449 34.6311 30.0449C34.3321 30.0449 33.9065 30.388 33.3544 31.0741C32.8023 31.74 32.2502 32.628 31.6981 33.7379C31.1459 34.8478 30.6974 36.0182 30.3523 37.2492C29.9152 38.8636 28.834 39.6708 27.1086 39.6708C26.4185 39.6708 25.9584 39.4589 25.7284 39.0352C25.5213 38.5912 25.4178 37.8042 25.4178 36.6741C25.4178 36.0283 25.4293 35.5137 25.4523 35.1303L25.4868 32.7087C25.4868 29.6009 25.8434 26.362 26.5565 22.9919C27.2927 19.6218 28.3624 16.7966 29.7657 14.5162C31.192 12.2157 32.8943 11.0654 34.8727 11.0654C35.9309 11.0654 36.7821 11.469 37.4262 12.2762C38.0933 13.0633 38.4269 14.0925 38.4269 15.3638C38.4269 17.402 37.7483 19.5209 36.391 21.7206C35.0337 23.9 32.8253 26.4528 29.7657 29.3789C29.6967 30.4283 29.6621 31.508 29.6621 32.6179C30.4213 30.9025 31.261 29.5101 32.1812 28.4406C33.1243 27.3508 34.0445 26.5739 34.9417 26.1098C35.8619 25.6456 36.7016 25.4135 37.4607 25.4135C38.956 25.4135 39.7037 26.0694 39.7037 27.3811C39.7037 28.1681 39.4506 29.5908 38.9445 31.6492C38.5074 33.4049 38.2889 34.5653 38.2889 35.1303C38.2889 35.9375 38.6224 36.3411 39.2896 36.3411C39.7497 36.3411 40.2903 36.0989 40.9114 35.6146C41.5555 35.1101 42.4067 34.3029 43.4649 33.193C43.741 32.9105 44.0515 32.7692 44.3966 32.7692ZM34.148 14.0622C33.734 14.0622 33.2739 14.5869 32.7678 15.6362C32.2617 16.6654 31.7671 18.068 31.284 19.8438C30.8239 21.5995 30.4443 23.5166 30.1452 25.5952C31.5715 24.122 32.7448 22.5177 33.6649 20.7822C34.6081 19.0467 35.0797 17.4726 35.0797 16.06C35.0797 15.4143 34.9992 14.9198 34.8382 14.5768C34.6772 14.2337 34.4471 14.0622 34.148 14.0622ZM60.1646 30.2265C60.4636 30.2265 60.6937 30.3577 60.8547 30.62C61.0158 30.8824 61.0963 31.2153 61.0963 31.6189C61.0963 32.5876 60.7627 33.1627 60.0956 33.3443C58.7153 33.7681 57.197 34.0103 55.5407 34.0708C55.1036 35.766 54.2409 37.1281 52.9526 38.1573C51.6644 39.1663 50.2036 39.6708 48.5703 39.6708C47.19 39.6708 46.0052 39.3782 45.016 38.793C44.0499 38.2078 43.3137 37.4308 42.8076 36.4622C42.3015 35.4935 42.0485 34.4442 42.0485 33.3141C42.0485 31.7804 42.382 30.4182 43.0492 29.2276C43.7163 28.0168 44.6365 27.0784 45.8097 26.4125C46.9829 25.7263 48.2827 25.3833 49.709 25.3833C51.4573 25.3833 52.8606 25.918 53.9188 26.9876C55 28.037 55.6327 29.3386 55.8167 30.8925C56.8979 30.8319 58.1862 30.6301 59.6815 30.2871C59.8655 30.2467 60.0266 30.2265 60.1646 30.2265ZM48.8463 36.4622C49.5825 36.4622 50.2151 36.1998 50.7442 35.6752C51.2963 35.1505 51.6644 34.3937 51.8484 33.4049C51.1353 32.9811 50.5832 32.4262 50.1921 31.74C49.824 31.0539 49.64 30.3274 49.64 29.5606C49.64 29.2377 49.6745 28.9148 49.7435 28.5919H49.571C48.6508 28.5919 47.8801 28.9854 47.259 29.7725C46.6609 30.5393 46.3618 31.629 46.3618 33.0416C46.3618 34.1516 46.6034 34.9991 47.0865 35.5844C47.5926 36.1696 48.1792 36.4622 48.8463 36.4622ZM71.7994 30.2871C71.7994 31.8813 71.3738 33.3948 70.5226 34.8276C69.6945 36.2402 68.5788 37.3905 67.1755 38.2784C65.7952 39.1663 64.3114 39.6305 62.7241 39.6708C62.425 43.5656 61.7464 46.8146 60.6882 49.4179C59.63 52.0413 58.0772 53.353 56.0295 53.353C54.7873 53.353 53.8671 52.9595 53.2689 52.1725C52.6708 51.3854 52.3718 50.2957 52.3718 48.9033C52.3718 46.9256 52.8894 44.615 53.9246 41.9714C54.9598 39.348 56.5588 36.4521 58.7213 33.2838C58.7213 30.3375 58.6983 28.2892 58.6523 27.1389C58.6293 26.5537 58.8938 26.0896 59.4459 25.7465C59.998 25.4035 60.6882 25.2319 61.5163 25.2319C61.9994 25.2319 62.3445 25.3227 62.5515 25.5044C62.7816 25.6658 62.9081 25.9988 62.9311 26.5033C62.9311 27.0078 62.9426 27.3811 62.9656 27.6233C63.7018 26.8161 64.4264 26.2409 65.1396 25.8979C65.8527 25.5346 66.6119 25.353 67.417 25.353C68.7053 25.353 69.752 25.8071 70.5572 26.7152C71.3853 27.6233 71.7994 28.8139 71.7994 30.2871ZM62.8966 36.7649C63.7248 36.6035 64.4839 36.2099 65.1741 35.5844C65.8872 34.9386 66.4508 34.1516 66.8649 33.2233C67.279 32.2748 67.486 31.286 67.486 30.2568C67.486 29.6514 67.348 29.1973 67.072 28.8946C66.7959 28.5717 66.4278 28.4103 65.9677 28.4103C65.1396 28.4103 64.1389 29.1771 62.9656 30.7108C62.9426 31.5988 62.9311 32.9004 62.9311 34.6157C62.9311 35.544 62.9196 36.2604 62.8966 36.7649ZM56.3056 50.3865C56.9269 50.3865 57.4445 49.1959 57.8586 46.8146C58.2727 44.4535 58.5372 41.5072 58.6523 37.9757C57.6631 39.9937 56.8809 41.9209 56.3056 43.7573C55.7304 45.5937 55.4429 47.1375 55.4429 48.3887C55.4429 49.0344 55.5349 49.5289 55.7189 49.8719C55.88 50.215 56.0755 50.3865 56.3056 50.3865ZM80.1551 40.3368C78.9589 40.3368 78.0387 40.0946 77.3945 39.6103C76.7734 39.126 76.4629 38.5811 76.4629 37.9757C76.4629 37.451 76.6814 36.997 77.1185 36.6135C77.5556 36.2301 78.1997 36.0384 79.0509 36.0384C79.3499 36.0384 79.695 36.0687 80.0861 36.1292C80.5002 36.1696 80.8107 36.1998 81.0178 36.22C80.9948 35.6953 80.8567 35.2009 80.6037 34.7368C80.3736 34.2726 80.0746 33.8287 79.7065 33.4049C79.3384 32.9609 78.9934 32.5775 78.6713 32.2546C77.9582 33.4453 77.245 34.4341 76.5319 35.2211C75.8417 36.0081 75.0826 36.7548 74.2544 37.4611C73.8403 37.8244 73.4033 38.006 72.9432 38.006C72.5751 38.006 72.276 37.895 72.046 37.673C71.8159 37.4308 71.7009 37.1382 71.7009 36.7952C71.7009 36.3916 71.8619 36.0182 72.184 35.6752L72.6326 35.1908C73.8979 33.8186 74.8525 32.6885 75.4967 31.8006C75.9108 31.2153 76.3248 30.5191 76.7389 29.7119C77.176 28.9047 77.7396 27.8049 78.4298 26.4125C78.8668 25.5245 79.7755 25.0806 81.1558 25.0806C81.7999 25.0806 82.2485 25.131 82.5016 25.2319C82.7546 25.3328 82.8811 25.4943 82.8811 25.7162C82.8811 25.8373 82.8351 26.029 82.7431 26.2914C82.6511 26.5537 82.5246 26.8161 82.3635 27.0784C81.9495 27.8049 81.7424 28.4204 81.7424 28.9249C81.7424 29.2276 81.8574 29.5606 82.0875 29.9238C82.3405 30.2871 82.7201 30.7411 83.2262 31.286C83.9624 32.1335 84.5145 32.86 84.8826 33.4654C85.2736 34.0507 85.4692 34.6964 85.4692 35.4027C85.4692 36.2503 85.2391 37.0575 84.779 37.8244C84.3419 38.571 83.7208 39.1764 82.9157 39.6406C82.1105 40.1047 81.1903 40.3368 80.1551 40.3368Z" fill="#E86105"/>
<defs>
<linearGradient id="paint0_linear_83_10" x1="104" y1="32.1621" x2="104" y2="69.9999" gradientUnits="userSpaceOnUse">
<stop offset="0.270833" stop-color="white"/>
<stop offset="1" stop-color="#2B2A38" stop-opacity="0"/>
</linearGradient>
</defs>
</svg>
