<svg width="868" height="333" viewBox="0 0 868 333" fill="none" xmlns="http://www.w3.org/2000/svg">
<path d="M6.32812 239.555C6.32812 233.461 7.19531 227.859 8.92969 222.75C10.6641 217.641 13.0781 213.047 16.1719 208.969C19.2656 204.891 22.9453 201.328 27.2109 198.281C31.5234 195.234 36.2344 192.68 41.3438 190.617C46.5 188.555 51.9609 187.031 57.7266 186.047C63.4922 185.016 69.4219 184.5 75.5156 184.5C79.1719 184.5 82.8281 184.734 86.4844 185.203C90.1875 185.672 93.7734 186.328 97.2422 187.172C100.711 188.016 104.016 189.023 107.156 190.195C110.344 191.367 113.273 192.656 115.945 194.062L121.289 187.172H137.039V221.484H119.18C117.211 217.969 114.82 214.852 112.008 212.133C109.242 209.414 106.172 207.117 102.797 205.242C99.4688 203.367 95.9062 201.961 92.1094 201.023C88.3594 200.039 84.4922 199.547 80.5078 199.547C76.1484 199.547 72 200.297 68.0625 201.797C64.125 203.297 60.6797 205.594 57.7266 208.688C54.7734 211.781 52.4297 215.719 50.6953 220.5C48.9609 225.234 48.0938 230.859 48.0938 237.375C48.0938 243.609 49.0312 249.117 50.9062 253.898C52.8281 258.633 55.3828 262.617 58.5703 265.852C61.7578 269.039 65.4609 271.453 69.6797 273.094C73.9453 274.734 78.4219 275.555 83.1094 275.555C87.2344 275.555 90.7969 275.273 93.7969 274.711C96.7969 274.102 99.5156 273.047 101.953 271.547V253.969L81.4922 234.281H137.953V288H121.289L117.422 280.969C114.656 282.75 111.703 284.273 108.562 285.539C105.422 286.758 102.141 287.742 98.7188 288.492C95.2969 289.289 91.7812 289.852 88.1719 290.18C84.5625 290.555 80.9062 290.742 77.2031 290.742C70.875 290.742 64.7109 290.367 58.7109 289.617C52.7578 288.867 47.1562 287.672 41.9062 286.031C36.6562 284.344 31.8516 282.188 27.4922 279.562C23.1328 276.891 19.3828 273.68 16.2422 269.93C13.1016 266.133 10.6641 261.727 8.92969 256.711C7.19531 251.695 6.32812 245.977 6.32812 239.555ZM167.906 270.352L201.023 204.398L185.906 187.172H268.312L255.586 205.031L285.258 270.211L303.75 288H229.922L245.25 270.352L242.227 262.969H195.82L192.516 270.352L212.695 288H147.234L167.906 270.352ZM236.32 248.273L220.219 208.617L202.43 248.273H236.32ZM322.805 270.141V205.031L303.047 187.172H386.648L359.859 205.031V271.898H397.125L425.883 247.008V288H303.047L322.805 270.141ZM436.5 237.586C436.5 231.117 437.438 225.305 439.312 220.148C441.234 214.992 443.812 210.445 447.047 206.508C450.281 202.57 454.078 199.219 458.438 196.453C462.797 193.641 467.414 191.367 472.289 189.633C477.211 187.852 482.273 186.562 487.477 185.766C492.68 184.922 497.766 184.5 502.734 184.5C508.172 184.5 513.586 184.922 518.977 185.766C524.414 186.562 529.57 187.852 534.445 189.633C539.367 191.367 543.938 193.641 548.156 196.453C552.375 199.219 556.031 202.57 559.125 206.508C562.266 210.445 564.703 214.992 566.438 220.148C568.219 225.305 569.109 231.117 569.109 237.586C569.109 243.961 568.195 249.703 566.367 254.812C564.539 259.922 562.031 264.445 558.844 268.383C555.656 272.32 551.906 275.695 547.594 278.508C543.328 281.32 538.734 283.641 533.812 285.469C528.938 287.297 523.828 288.633 518.484 289.477C513.188 290.32 507.938 290.742 502.734 290.742C497.531 290.742 492.281 290.344 486.984 289.547C481.688 288.75 476.578 287.484 471.656 285.75C466.781 284.016 462.188 281.766 457.875 279C453.609 276.234 449.883 272.883 446.695 268.945C443.555 265.008 441.07 260.461 439.242 255.305C437.414 250.102 436.5 244.195 436.5 237.586ZM477.844 237.586C477.844 243.117 478.453 248.25 479.672 252.984C480.891 257.672 482.602 261.75 484.805 265.219C487.008 268.688 489.633 271.406 492.68 273.375C495.727 275.344 499.078 276.328 502.734 276.328C506.391 276.328 509.742 275.32 512.789 273.305C515.836 271.289 518.461 268.547 520.664 265.078C522.914 261.609 524.648 257.531 525.867 252.844C527.133 248.109 527.766 243.023 527.766 237.586C527.766 232.102 527.18 226.969 526.008 222.188C524.836 217.359 523.148 213.188 520.945 209.672C518.789 206.109 516.164 203.32 513.07 201.305C509.977 199.242 506.531 198.211 502.734 198.211C499.078 198.211 495.727 199.242 492.68 201.305C489.633 203.32 487.008 206.109 484.805 209.672C482.602 213.188 480.891 217.359 479.672 222.188C478.453 226.969 477.844 232.102 477.844 237.586ZM599.414 270.141V205.031L577.617 187.172C582.023 187.125 586.594 187.078 591.328 187.031C596.062 186.984 600.773 186.961 605.461 186.961C610.148 186.914 614.719 186.867 619.172 186.82C623.625 186.773 627.797 186.75 631.688 186.75C635.625 186.703 639.188 186.68 642.375 186.68C645.562 186.68 648.211 186.68 650.32 186.68C654.773 186.68 659.438 186.773 664.312 186.961C669.188 187.148 673.969 187.57 678.656 188.227C683.391 188.836 687.867 189.773 692.086 191.039C696.352 192.258 700.078 193.922 703.266 196.031C706.5 198.094 709.055 200.672 710.93 203.766C712.852 206.812 713.812 210.492 713.812 214.805C713.812 218.086 713.227 221.039 712.055 223.664C710.883 226.289 709.195 228.633 706.992 230.695C704.836 232.758 702.211 234.562 699.117 236.109C696.023 237.656 692.578 238.992 688.781 240.117C691.734 240.539 694.5 241.547 697.078 243.141C699.703 244.688 701.977 246.656 703.898 249.047C705.82 251.438 707.32 254.203 708.398 257.344C709.523 260.484 710.086 263.859 710.086 267.469V271.547L729.844 288H660.656L671.344 273.023V264.375C671.344 261.938 670.992 259.711 670.289 257.695C669.586 255.633 668.625 253.875 667.406 252.422C666.188 250.922 664.758 249.773 663.117 248.977C661.523 248.133 659.836 247.711 658.055 247.711H636.469V270.141L649.195 288H577.547L599.414 270.141ZM646.734 233.93C651.656 233.93 655.945 233.719 659.602 233.297C663.258 232.875 666.281 232.078 668.672 230.906C671.109 229.734 672.914 228.117 674.086 226.055C675.258 223.992 675.844 221.344 675.844 218.109C675.844 215.625 675.422 213.492 674.578 211.711C673.734 209.93 672.586 208.453 671.133 207.281C669.68 206.062 667.969 205.102 666 204.398C664.078 203.648 662.039 203.109 659.883 202.781C657.727 202.406 655.523 202.172 653.273 202.078C651.023 201.938 648.844 201.867 646.734 201.867H636.469V233.93H646.734ZM751.008 270.141V205.031L731.25 187.172H859.008L857.602 222.047L829.547 203.273H788.062V226.547H830.391V242.016H788.062V271.898H829.547L858.305 254.742V288H731.25L751.008 270.141Z" fill="url(#paint0_linear_42_79)"/>
<path d="M47.088 189.152C34.32 189.152 24.096 186.752 16.416 181.952C8.736 177.056 4.896 169.616 4.896 159.632C4.896 154.352 5.808 150.32 7.632 147.536C9.456 144.752 12.144 143.36 15.696 143.36C18.288 143.36 20.4 144.032 22.032 145.376C23.664 146.72 24.48 148.448 24.48 150.56C24.48 152.48 24.336 154.16 24.048 155.6C24.048 155.984 23.952 156.656 23.76 157.616C23.664 158.576 23.616 159.584 23.616 160.64C23.616 164.96 25.776 168.176 30.096 170.288C34.512 172.4 40.656 173.456 48.528 173.456C56.688 173.456 63.072 172.016 67.68 169.136C72.288 166.16 74.592 162.032 74.592 156.752C74.592 153.488 73.536 150.704 71.424 148.4C69.312 146 66.672 144.032 63.504 142.496C60.336 140.864 55.872 138.896 50.112 136.592C42.72 133.712 36.672 130.976 31.968 128.384C27.36 125.792 23.376 122.288 20.016 117.872C16.752 113.36 15.12 107.792 15.12 101.168C15.12 94.256 16.944 88.112 20.592 82.736C24.336 77.36 29.664 73.184 36.576 70.208C43.584 67.232 51.792 65.744 61.2 65.744C68.208 65.744 74.64 66.8 80.496 68.912C86.352 70.928 91.008 74.048 94.464 78.272C98.016 82.496 99.792 87.68 99.792 93.824C99.792 99.872 98.88 104.432 97.056 107.504C95.232 110.576 92.544 112.112 88.992 112.112C86.496 112.112 84.384 111.344 82.656 109.808C81.024 108.272 80.208 106.448 80.208 104.336C80.208 102.512 80.352 100.832 80.64 99.296C80.928 96.416 81.072 94.592 81.072 93.824C81.072 89.792 79.104 86.72 75.168 84.608C71.232 82.496 66.336 81.44 60.48 81.44C52.224 81.44 45.888 82.976 41.472 86.048C37.152 89.024 34.992 93.248 34.992 98.72C34.992 102.368 36.096 105.488 38.304 108.08C40.608 110.672 43.44 112.832 46.8 114.56C50.16 116.288 54.864 118.352 60.912 120.752C68.208 123.728 74.064 126.416 78.48 128.816C82.896 131.216 86.64 134.48 89.712 138.608C92.88 142.736 94.464 147.824 94.464 153.872C94.464 165.2 90.144 173.936 81.504 180.08C72.96 186.128 61.488 189.152 47.088 189.152ZM185.27 155.888C186.518 155.888 187.478 156.464 188.15 157.616C188.918 158.768 189.302 160.352 189.302 162.368C189.302 166.208 188.39 169.184 186.566 171.296C182.15 176.384 177.59 180.56 172.886 183.824C168.278 187.088 162.998 188.72 157.046 188.72C152.15 188.72 148.454 187.328 145.958 184.544C143.462 181.664 142.214 177.536 142.214 172.16C142.214 169.472 142.886 164.672 144.23 157.76C145.478 151.712 146.102 147.536 146.102 145.232C146.102 143.696 145.574 142.928 144.518 142.928C143.27 142.928 141.494 144.56 139.19 147.824C136.886 150.992 134.582 155.216 132.278 160.496C129.974 165.776 128.102 171.344 126.662 177.2C124.838 184.88 120.326 188.72 113.126 188.72C110.246 188.72 108.326 187.712 107.366 185.696C106.502 183.584 106.07 179.84 106.07 174.464C106.07 171.392 106.118 168.944 106.214 167.12L106.358 155.6C106.358 140.816 107.846 125.408 110.822 109.376C113.894 93.344 118.358 79.904 124.214 69.056C130.166 58.112 137.27 52.64 145.526 52.64C149.942 52.64 153.494 54.56 156.182 58.4C158.966 62.144 160.358 67.04 160.358 73.088C160.358 82.784 157.526 92.864 151.862 103.328C146.198 113.696 136.982 125.84 124.214 139.76C123.926 144.752 123.782 149.888 123.782 155.168C126.95 147.008 130.454 140.384 134.294 135.296C138.23 130.112 142.07 126.416 145.814 124.208C149.654 122 153.158 120.896 156.326 120.896C162.566 120.896 165.686 124.016 165.686 130.256C165.686 134 164.63 140.768 162.518 150.56C160.694 158.912 159.782 164.432 159.782 167.12C159.782 170.96 161.174 172.88 163.958 172.88C165.878 172.88 168.134 171.728 170.726 169.424C173.414 167.024 176.966 163.184 181.382 157.904C182.534 156.56 183.83 155.888 185.27 155.888ZM142.502 66.896C140.774 66.896 138.854 69.392 136.742 74.384C134.63 79.28 132.566 85.952 130.55 94.4C128.63 102.752 127.046 111.872 125.798 121.76C131.75 114.752 136.646 107.12 140.486 98.864C144.422 90.608 146.39 83.12 146.39 76.4C146.39 73.328 146.054 70.976 145.382 69.344C144.71 67.712 143.75 66.896 142.502 66.896ZM251.071 143.792C252.319 143.792 253.279 144.416 253.951 145.664C254.623 146.912 254.959 148.496 254.959 150.416C254.959 155.024 253.567 157.76 250.783 158.624C245.023 160.64 238.687 161.792 231.775 162.08C229.951 170.144 226.351 176.624 220.975 181.52C215.599 186.32 209.503 188.72 202.687 188.72C196.927 188.72 191.983 187.328 187.855 184.544C183.823 181.76 180.751 178.064 178.639 173.456C176.527 168.848 175.471 163.856 175.471 158.48C175.471 151.184 176.863 144.704 179.647 139.04C182.431 133.28 186.271 128.816 191.167 125.648C196.063 122.384 201.487 120.752 207.439 120.752C214.735 120.752 220.591 123.296 225.007 128.384C229.519 133.376 232.159 139.568 232.927 146.96C237.439 146.672 242.815 145.712 249.055 144.08C249.823 143.888 250.495 143.792 251.071 143.792ZM203.839 173.456C206.911 173.456 209.551 172.208 211.759 169.712C214.063 167.216 215.599 163.616 216.367 158.912C213.391 156.896 211.087 154.256 209.455 150.992C207.919 147.728 207.151 144.272 207.151 140.624C207.151 139.088 207.295 137.552 207.583 136.016H206.863C203.023 136.016 199.807 137.888 197.215 141.632C194.719 145.28 193.471 150.464 193.471 157.184C193.471 162.464 194.479 166.496 196.495 169.28C198.607 172.064 201.055 173.456 203.839 173.456ZM299.624 144.08C299.624 151.664 297.848 158.864 294.296 165.68C290.84 172.4 286.184 177.872 280.328 182.096C274.568 186.32 268.376 188.528 261.752 188.72C260.504 207.248 257.672 222.704 253.256 235.088C248.84 247.568 242.36 253.808 233.815 253.808C228.631 253.808 224.791 251.936 222.295 248.192C219.799 244.448 218.551 239.264 218.551 232.64C218.551 223.232 220.711 212.24 225.031 199.664C229.351 187.184 236.024 173.408 245.048 158.336C245.048 144.32 244.952 134.576 244.76 129.104C244.664 126.32 245.768 124.112 248.072 122.48C250.376 120.848 253.256 120.032 256.712 120.032C258.728 120.032 260.168 120.464 261.032 121.328C261.992 122.096 262.52 123.68 262.616 126.08C262.616 128.48 262.664 130.256 262.76 131.408C265.832 127.568 268.856 124.832 271.832 123.2C274.808 121.472 277.976 120.608 281.336 120.608C286.712 120.608 291.08 122.768 294.44 127.088C297.896 131.408 299.624 137.072 299.624 144.08ZM262.472 174.896C265.928 174.128 269.096 172.256 271.976 169.28C274.952 166.208 277.304 162.464 279.032 158.048C280.76 153.536 281.624 148.832 281.624 143.936C281.624 141.056 281.048 138.896 279.896 137.456C278.744 135.92 277.208 135.152 275.288 135.152C271.832 135.152 267.656 138.8 262.76 146.096C262.664 150.32 262.616 156.512 262.616 164.672C262.616 169.088 262.568 172.496 262.472 174.896ZM234.967 239.696C237.56 239.696 239.72 234.032 241.448 222.704C243.176 211.472 244.28 197.456 244.76 180.656C240.632 190.256 237.368 199.424 234.967 208.16C232.567 216.896 231.367 224.24 231.367 230.192C231.367 233.264 231.751 235.616 232.519 237.248C233.191 238.88 234.007 239.696 234.967 239.696ZM334.493 191.888C329.501 191.888 325.661 190.736 322.973 188.432C320.381 186.128 319.085 183.536 319.085 180.656C319.085 178.16 319.997 176 321.821 174.176C323.645 172.352 326.333 171.44 329.885 171.44C331.133 171.44 332.573 171.584 334.205 171.872C335.933 172.064 337.229 172.208 338.093 172.304C337.997 169.808 337.421 167.456 336.365 165.248C335.405 163.04 334.157 160.928 332.621 158.912C331.085 156.8 329.645 154.976 328.301 153.44C325.325 159.104 322.349 163.808 319.373 167.552C316.493 171.296 313.325 174.848 309.869 178.208C308.141 179.936 306.317 180.8 304.397 180.8C302.861 180.8 301.613 180.272 300.653 179.216C299.693 178.064 299.213 176.672 299.213 175.04C299.213 173.12 299.885 171.344 301.229 169.712L303.101 167.408C308.381 160.88 312.365 155.504 315.053 151.28C316.781 148.496 318.509 145.184 320.237 141.344C322.061 137.504 324.413 132.272 327.293 125.648C329.117 121.424 332.909 119.312 338.669 119.312C341.357 119.312 343.229 119.552 344.285 120.032C345.341 120.512 345.869 121.28 345.869 122.336C345.869 122.912 345.677 123.824 345.293 125.072C344.909 126.32 344.381 127.568 343.709 128.816C341.981 132.272 341.117 135.2 341.117 137.6C341.117 139.04 341.597 140.624 342.557 142.352C343.613 144.08 345.197 146.24 347.309 148.832C350.381 152.864 352.685 156.32 354.221 159.2C355.853 161.984 356.669 165.056 356.669 168.416C356.669 172.448 355.709 176.288 353.789 179.936C351.965 183.488 349.373 186.368 346.013 188.576C342.653 190.784 338.813 191.888 334.493 191.888Z" fill="#E86105"/>
<defs>
<linearGradient id="paint0_linear_42_79" x1="434" y1="153" x2="434" y2="333" gradientUnits="userSpaceOnUse">
<stop stop-color="#2B2A38"/>
<stop offset="1" stop-color="#2B2A38" stop-opacity="0"/>
</linearGradient>
</defs>
</svg>
