<svg width="208" height="80" viewBox="0 0 208 80" fill="none" xmlns="http://www.w3.org/2000/svg">
<path d="M1.5166 57.5508C1.5166 56.0867 1.72441 54.7409 2.14002 53.5135C2.55564 52.2861 3.13411 51.1825 3.87548 50.2028C4.61683 49.2231 5.4986 48.3671 6.52077 47.6351C7.55418 46.9031 8.68308 46.2895 9.90746 45.7939C11.143 45.2985 12.4516 44.9324 13.8333 44.696C15.2149 44.4483 16.6358 44.3243 18.0961 44.3243C18.9723 44.3243 19.8484 44.3806 20.7246 44.4932C21.6119 44.6059 22.4712 44.7635 23.3025 44.9663C24.1337 45.169 24.9257 45.4109 25.6781 45.6925C26.4421 45.9741 27.1439 46.2837 27.7842 46.6215L29.0648 44.9663H32.839V53.2094H28.5594C28.0876 52.3649 27.5147 51.6161 26.8408 50.9629C26.178 50.3097 25.4423 49.7579 24.6336 49.3074C23.836 48.857 22.9823 48.5192 22.0725 48.2938C21.1739 48.0574 20.2472 47.9392 19.2924 47.9392C18.2477 47.9392 17.2536 48.1194 16.3101 48.4798C15.3665 48.8401 14.5409 49.392 13.8333 50.1353C13.1256 50.8783 12.564 51.8244 12.1484 52.973C11.7328 54.1103 11.525 55.4616 11.525 57.0271C11.525 58.5247 11.7496 59.848 12.1989 60.9965C12.6595 62.1341 13.2716 63.0912 14.0355 63.8684C14.7993 64.634 15.6867 65.214 16.6976 65.6082C17.7198 66.0022 18.7925 66.1994 19.9158 66.1994C20.9043 66.1994 21.758 66.1317 22.4769 65.9967C23.1958 65.8504 23.8472 65.5969 24.4313 65.2365V61.0136L19.5283 56.2837H33.058V69.1892H29.0648L28.1382 67.5001C27.4754 67.928 26.7677 68.2938 26.015 68.598C25.2626 68.8908 24.4764 69.1272 23.6563 69.3074C22.8363 69.4989 21.9938 69.6341 21.1289 69.7129C20.264 69.803 19.3878 69.848 18.5005 69.848C16.9841 69.848 15.5069 69.7579 14.0692 69.5777C12.6426 69.3975 11.3003 69.1104 10.0422 68.7162C8.78416 68.3109 7.63283 67.7929 6.58818 67.1621C5.54353 66.5204 4.64491 65.749 3.89233 64.8481C3.13974 63.9359 2.55564 62.8774 2.14002 61.6723C1.72441 60.4673 1.5166 59.0936 1.5166 57.5508ZM40.2357 64.9495L48.1716 49.1046L44.5491 44.9663H64.2961L61.2466 49.2567L68.3569 64.9156L72.7882 69.1892H55.0967L58.7698 64.9495L58.0454 63.1758H46.9248L46.133 64.9495L50.9686 69.1892H35.2821L40.2357 64.9495ZM56.6299 59.6452L52.7716 50.1182L48.5088 59.6452H56.6299ZM77.3544 64.8988V49.2567L72.6197 44.9663H92.6532L86.2337 49.2567V65.3209H95.1638L102.055 59.3413V69.1892H72.6197L77.3544 64.8988ZM104.599 57.0777C104.599 55.5236 104.824 54.1273 105.273 52.8884C105.734 51.6497 106.351 50.5574 107.127 49.6116C107.902 48.6655 108.811 47.8604 109.856 47.1959C110.901 46.5204 112.007 45.9741 113.175 45.5575C114.355 45.1296 115.568 44.8197 116.815 44.6285C118.062 44.4257 119.281 44.3243 120.471 44.3243C121.774 44.3243 123.071 44.4257 124.363 44.6285C125.666 44.8197 126.902 45.1296 128.07 45.5575C129.249 45.9741 130.345 46.5204 131.356 47.1959C132.367 47.8604 133.243 48.6655 133.984 49.6116C134.737 50.5574 135.321 51.6497 135.736 52.8884C136.163 54.1273 136.377 55.5236 136.377 57.0777C136.377 58.6093 136.158 59.9887 135.719 61.2161C135.281 62.4438 134.68 63.5304 133.917 64.4764C133.153 65.4223 132.254 66.2331 131.221 66.9089C130.199 67.5844 129.098 68.142 127.918 68.5812C126.75 69.0203 125.526 69.3413 124.245 69.5441C122.976 69.7466 121.718 69.848 120.471 69.848C119.224 69.848 117.966 69.7523 116.697 69.5609C115.428 69.3694 114.203 69.0653 113.024 68.6487C111.856 68.2321 110.755 67.6916 109.721 67.0271C108.699 66.3626 107.806 65.5575 107.042 64.6114C106.29 63.6656 105.694 62.5732 105.256 61.3346C104.818 60.0846 104.599 58.6655 104.599 57.0777ZM114.507 57.0777C114.507 58.4065 114.653 59.6397 114.945 60.777C115.237 61.9032 115.647 62.8829 116.175 63.7163C116.703 64.5497 117.332 65.2027 118.062 65.6757C118.792 66.1487 119.595 66.3851 120.471 66.3851C121.347 66.3851 122.15 66.143 122.88 65.6589C123.611 65.1746 124.24 64.5158 124.768 63.6824C125.307 62.849 125.722 61.8693 126.014 60.7433C126.318 59.6058 126.469 58.3839 126.469 57.0777C126.469 55.7603 126.329 54.5271 126.048 53.3785C125.767 52.2184 125.363 51.2164 124.835 50.3717C124.318 49.5157 123.689 48.8457 122.948 48.3616C122.207 47.866 121.381 47.6183 120.471 47.6183C119.595 47.6183 118.792 47.866 118.062 48.3616C117.332 48.8457 116.703 49.5157 116.175 50.3717C115.647 51.2164 115.237 52.2184 114.945 53.3785C114.653 54.5271 114.507 55.7603 114.507 57.0777ZM143.639 64.8988V49.2567L138.415 44.9663C139.471 44.955 140.566 44.9437 141.701 44.9324C142.835 44.9211 143.964 44.9156 145.088 44.9156C146.211 44.9043 147.306 44.893 148.373 44.8817C149.44 44.8704 150.44 44.8649 151.372 44.8649C152.316 44.8536 153.17 44.8481 153.933 44.8481C154.697 44.8481 155.332 44.8481 155.837 44.8481C156.904 44.8481 158.022 44.8704 159.19 44.9156C160.359 44.9605 161.504 45.0619 162.627 45.2197C163.762 45.366 164.835 45.5911 165.846 45.8953C166.868 46.1881 167.761 46.5879 168.525 47.0946C169.3 47.5902 169.912 48.2095 170.361 48.9528C170.822 49.6846 171.052 50.5687 171.052 51.6048C171.052 52.3931 170.912 53.1025 170.631 53.7331C170.35 54.3637 169.946 54.9269 169.418 55.4222C168.901 55.9179 168.272 56.3513 167.531 56.7229C166.789 57.0946 165.964 57.4155 165.054 57.6858C165.761 57.7872 166.424 58.0293 167.042 58.4123C167.671 58.7839 168.216 59.2567 168.676 59.8311C169.137 60.4056 169.496 61.0698 169.755 61.8244C170.024 62.5788 170.159 63.3896 170.159 64.2568V65.2365L174.894 69.1892H158.314L160.875 65.5911V63.5135C160.875 62.9281 160.791 62.3931 160.622 61.9087C160.454 61.4134 160.224 60.991 159.932 60.6419C159.64 60.2816 159.297 60.0056 158.904 59.8143C158.522 59.6116 158.118 59.5102 157.691 59.5102H152.518V64.8988L155.568 69.1892H138.399L143.639 64.8988ZM154.978 56.1994C156.157 56.1994 157.185 56.1487 158.061 56.0474C158.938 55.946 159.662 55.7545 160.235 55.4729C160.819 55.1914 161.251 54.8029 161.532 54.3075C161.813 53.8119 161.954 53.1758 161.954 52.3986C161.954 51.8018 161.852 51.2894 161.65 50.8615C161.448 50.4337 161.173 50.0788 160.825 49.7973C160.476 49.5044 160.066 49.2738 159.595 49.1046C159.134 48.9245 158.645 48.795 158.129 48.7162C157.612 48.6261 157.084 48.5699 156.545 48.5473C156.006 48.5137 155.484 48.4966 154.978 48.4966H152.518V56.1994H154.978ZM179.965 64.8988V49.2567L175.231 44.9663H205.845L205.508 53.3446L198.786 48.8344H188.845V54.4257H198.988V58.142H188.845V65.3209H198.786L205.677 61.1993V69.1892H175.231L179.965 64.8988Z" fill="url(#paint0_linear_143_243)"/>
<path d="M11.2839 45.442C8.22425 45.442 5.77426 44.8654 3.93389 43.7122C2.09352 42.536 1.17334 40.7486 1.17334 38.3501C1.17334 37.0816 1.39188 36.113 1.82897 35.4441C2.26606 34.7753 2.91019 34.4409 3.76136 34.4409C4.38248 34.4409 4.88858 34.6023 5.27966 34.9252C5.67074 35.2481 5.86628 35.6632 5.86628 36.1706C5.86628 36.6319 5.83177 37.0355 5.76276 37.3814C5.76276 37.4737 5.73975 37.6351 5.69375 37.8658C5.67074 38.0964 5.65924 38.3386 5.65924 38.5922C5.65924 39.6301 6.17684 40.4027 7.21205 40.9101C8.27026 41.4175 9.74256 41.6712 11.6289 41.6712C13.5843 41.6712 15.1141 41.3252 16.2184 40.6333C17.3226 39.9184 17.8747 38.9267 17.8747 37.6582C17.8747 36.8741 17.6216 36.2052 17.1155 35.6517C16.6094 35.0751 15.9768 34.6023 15.2177 34.2333C14.4585 33.8413 13.3888 33.3685 12.0085 32.815C10.2372 32.1231 8.78786 31.4658 7.66064 30.8431C6.55642 30.2204 5.60173 29.3786 4.79657 28.3177C4.01441 27.2337 3.62333 25.896 3.62333 24.3047C3.62333 22.6441 4.06042 21.1681 4.93459 19.8766C5.83177 18.585 7.10853 17.5818 8.76486 16.8668C10.4442 16.1519 12.4111 15.7944 14.6655 15.7944C16.3449 15.7944 17.8862 16.0481 19.2895 16.5555C20.6927 17.0398 21.8085 17.7894 22.6366 18.8041C23.4878 19.8189 23.9134 21.0643 23.9134 22.5404C23.9134 23.9933 23.6948 25.0888 23.2578 25.8268C22.8207 26.5649 22.1765 26.9339 21.3254 26.9339C20.7273 26.9339 20.2212 26.7494 19.8071 26.3804C19.416 26.0113 19.2205 25.5731 19.2205 25.0658C19.2205 24.6276 19.255 24.224 19.324 23.855C19.393 23.1631 19.4275 22.7249 19.4275 22.5404C19.4275 21.5717 18.9559 20.8337 18.0127 20.3263C17.0695 19.8189 15.8963 19.5652 14.493 19.5652C12.5146 19.5652 10.9963 19.9342 9.9381 20.6722C8.90289 21.3872 8.38528 22.402 8.38528 23.7166C8.38528 24.593 8.64984 25.3425 9.17894 25.9652C9.73105 26.5879 10.4097 27.1068 11.2149 27.522C12.02 27.9371 13.1472 28.433 14.5965 29.0095C16.3449 29.7245 17.7482 30.3703 18.8064 30.9468C19.8646 31.5234 20.7618 32.3076 21.4979 33.2993C22.2571 34.291 22.6366 35.5133 22.6366 36.9663C22.6366 39.6877 21.6014 41.7865 19.531 43.2625C17.4836 44.7155 14.7346 45.442 11.2839 45.442ZM44.3966 37.4506C44.6957 37.4506 44.9257 37.589 45.0867 37.8658C45.2708 38.1425 45.3628 38.5231 45.3628 39.0074C45.3628 39.9299 45.1442 40.6449 44.7072 41.1523C43.6489 42.3746 42.5562 43.3778 41.429 44.162C40.3248 44.9461 39.0595 45.3382 37.6332 45.3382C36.46 45.3382 35.5743 45.0038 34.9762 44.335C34.3781 43.6431 34.079 42.6514 34.079 41.3598C34.079 40.7141 34.2401 39.5609 34.5621 37.9004C34.8612 36.4474 35.0107 35.4441 35.0107 34.8906C35.0107 34.5216 34.8842 34.3371 34.6311 34.3371C34.3321 34.3371 33.9065 34.7292 33.3544 35.5133C32.8023 36.2744 32.2502 37.2892 31.6981 38.5577C31.1459 39.8261 30.6974 41.1638 30.3523 42.5706C29.9152 44.4157 28.834 45.3382 27.1086 45.3382C26.4185 45.3382 25.9584 45.096 25.7284 44.6117C25.5213 44.1043 25.4178 43.2049 25.4178 41.9133C25.4178 41.1753 25.4293 40.5872 25.4523 40.149L25.4868 37.3814C25.4868 33.8297 25.8434 30.1281 26.5565 26.2766C27.2927 22.425 28.3624 19.1962 29.7657 16.5901C31.192 13.9609 32.8943 12.6463 34.8727 12.6463C35.9309 12.6463 36.7821 13.1076 37.4262 14.0301C38.0933 14.9295 38.4269 16.1058 38.4269 17.5587C38.4269 19.8881 37.7483 22.3097 36.391 24.8236C35.0337 27.3144 32.8253 30.2319 29.7657 33.576C29.6967 34.7753 29.6621 36.0092 29.6621 37.2777C30.4213 35.3173 31.261 33.7259 32.1812 32.5036C33.1243 31.2582 34.0445 30.3703 34.9417 29.8398C35.8619 29.3094 36.7016 29.0441 37.4607 29.0441C38.956 29.0441 39.7037 29.7937 39.7037 31.2928C39.7037 32.1922 39.4506 33.8182 38.9445 36.1706C38.5074 38.1771 38.2889 39.5032 38.2889 40.149C38.2889 41.0715 38.6224 41.5328 39.2896 41.5328C39.7497 41.5328 40.2903 41.256 40.9114 40.7025C41.5555 40.1259 42.4067 39.2034 43.4649 37.935C43.741 37.6121 44.0515 37.4506 44.3966 37.4506ZM34.148 16.0712C33.734 16.0712 33.2739 16.6708 32.7678 17.8701C32.2617 19.0463 31.7671 20.6492 31.284 22.6787C30.8239 24.6852 30.4443 26.8762 30.1452 29.2517C31.5715 27.5681 32.7448 25.7346 33.6649 23.7512C34.6081 21.7677 35.0797 19.9688 35.0797 18.3544C35.0797 17.6164 34.9992 17.0513 34.8382 16.6593C34.6772 16.2672 34.4471 16.0712 34.148 16.0712ZM60.1646 34.5447C60.4636 34.5447 60.6937 34.6946 60.8547 34.9944C61.0158 35.2942 61.0963 35.6748 61.0963 36.136C61.0963 37.2431 60.7627 37.9004 60.0956 38.1079C58.7153 38.5922 57.197 38.869 55.5407 38.9382C55.1036 40.8755 54.2409 42.4323 52.9526 43.6085C51.6644 44.7616 50.2036 45.3382 48.5703 45.3382C47.19 45.3382 46.0052 45.0038 45.016 44.335C44.0499 43.6661 43.3137 42.7782 42.8076 41.6712C42.3015 40.5641 42.0485 39.3649 42.0485 38.0733C42.0485 36.3205 42.382 34.7638 43.0492 33.4031C43.7163 32.0193 44.6365 30.9468 45.8097 30.1858C46.9829 29.4016 48.2827 29.0095 49.709 29.0095C51.4573 29.0095 52.8606 29.6207 53.9188 30.8431C55 32.0423 55.6327 33.5299 55.8167 35.3058C56.8979 35.2366 58.1862 35.0059 59.6815 34.6139C59.8655 34.5677 60.0266 34.5447 60.1646 34.5447ZM48.8463 41.6712C49.5825 41.6712 50.2151 41.3714 50.7442 40.7717C51.2963 40.1721 51.6644 39.3072 51.8484 38.1771C51.1353 37.6928 50.5832 37.0586 50.1921 36.2744C49.824 35.4903 49.64 34.66 49.64 33.7836C49.64 33.4146 49.6745 33.0456 49.7435 32.6766H49.571C48.6508 32.6766 47.8801 33.1263 47.259 34.0258C46.6609 34.9022 46.3618 36.1476 46.3618 37.762C46.3618 39.0304 46.6034 39.9991 47.0865 40.6679C47.5926 41.3368 48.1792 41.6712 48.8463 41.6712ZM71.7994 34.6139C71.7994 36.4359 71.3738 38.1656 70.5226 39.8031C69.6945 41.4175 68.5788 42.7321 67.1755 43.7468C65.7952 44.7616 64.3114 45.2921 62.7241 45.3382C62.425 49.7894 61.7464 53.5025 60.6882 56.4777C59.63 59.4759 58.0772 60.975 56.0295 60.975C54.7873 60.975 53.8671 60.5252 53.2689 59.6258C52.6708 58.7263 52.3718 57.4809 52.3718 55.8895C52.3718 53.6294 52.8894 50.9886 53.9246 47.9674C54.9598 44.9692 56.5588 41.6596 58.7213 38.0387C58.7213 34.6715 58.6983 32.3306 58.6523 31.016C58.6293 30.3472 58.8938 29.8168 59.4459 29.4247C59.998 29.0326 60.6882 28.8366 61.5163 28.8366C61.9994 28.8366 62.3445 28.9404 62.5515 29.1479C62.7816 29.3324 62.9081 29.713 62.9311 30.2895C62.9311 30.8661 62.9426 31.2928 62.9656 31.5695C63.7018 30.647 64.4264 29.9897 65.1396 29.5977C65.8527 29.1825 66.6119 28.975 67.417 28.975C68.7053 28.975 69.752 29.4939 70.5572 30.5317C71.3853 31.5695 71.7994 32.9303 71.7994 34.6139ZM62.8966 42.0171C63.7248 41.8326 64.4839 41.3829 65.1741 40.6679C65.8872 39.9299 66.4508 39.0304 66.8649 37.9695C67.279 36.8856 67.486 35.7555 67.486 34.5793C67.486 33.8874 67.348 33.3685 67.072 33.0225C66.7959 32.6535 66.4278 32.469 65.9677 32.469C65.1396 32.469 64.1389 33.3454 62.9656 35.0982C62.9426 36.113 62.9311 37.6005 62.9311 39.5609C62.9311 40.6218 62.9196 41.4405 62.8966 42.0171ZM56.3056 57.5847C56.9269 57.5847 57.4445 56.224 57.8586 53.5025C58.2727 50.8041 58.5372 47.4369 58.6523 43.4009C57.6631 45.7072 56.8809 47.9097 56.3056 50.0085C55.7304 52.1072 55.4429 53.8715 55.4429 55.3014C55.4429 56.0395 55.5349 56.6045 55.7189 56.9966C55.88 57.3886 56.0755 57.5847 56.3056 57.5847ZM80.1551 46.0993C78.9589 46.0993 78.0387 45.8225 77.3945 45.269C76.7734 44.7155 76.4629 44.0928 76.4629 43.4009C76.4629 42.8013 76.6814 42.2823 77.1185 41.8441C77.5556 41.4059 78.1997 41.1868 79.0509 41.1868C79.3499 41.1868 79.695 41.2214 80.0861 41.2906C80.5002 41.3368 80.8107 41.3713 81.0178 41.3944C80.9948 40.7948 80.8567 40.2297 80.6037 39.6993C80.3736 39.1688 80.0746 38.6614 79.7065 38.1771C79.3384 37.6697 78.9934 37.2315 78.6713 36.8625C77.9582 38.2232 77.245 39.3533 76.5319 40.2528C75.8417 41.1523 75.0826 42.0056 74.2544 42.8128C73.8403 43.2279 73.4033 43.4355 72.9432 43.4355C72.5751 43.4355 72.276 43.3086 72.046 43.055C71.8159 42.7782 71.7009 42.4438 71.7009 42.0517C71.7009 41.5904 71.8619 41.1638 72.184 40.7717L72.6326 40.2182C73.8979 38.6499 74.8525 37.3584 75.4967 36.3436C75.9108 35.6748 76.3248 34.8791 76.7389 33.9566C77.176 33.034 77.7396 31.7771 78.4298 30.1858C78.8668 29.171 79.7755 28.6636 81.1558 28.6636C81.7999 28.6636 82.2485 28.7213 82.5016 28.8366C82.7546 28.9519 82.8811 29.1364 82.8811 29.3901C82.8811 29.5285 82.8351 29.7476 82.7431 30.0474C82.6511 30.3472 82.5246 30.647 82.3635 30.9468C81.9495 31.7771 81.7424 32.4805 81.7424 33.0571C81.7424 33.4031 81.8574 33.7836 82.0875 34.1987C82.3405 34.6139 82.7201 35.1328 83.2262 35.7555C83.9624 36.7241 84.5145 37.5544 84.8826 38.2463C85.2736 38.9151 85.4692 39.6532 85.4692 40.4604C85.4692 41.429 85.2391 42.3515 84.779 43.2279C84.3419 44.0813 83.7208 44.7732 82.9157 45.3036C82.1105 45.8341 81.1903 46.0993 80.1551 46.0993Z" fill="#E86105"/>
<defs>
<linearGradient id="paint0_linear_143_243" x1="104" y1="36.7568" x2="104" y2="80" gradientUnits="userSpaceOnUse">
<stop stop-color="#2B2A38"/>
<stop offset="1" stop-color="#2B2A38" stop-opacity="0"/>
</linearGradient>
</defs>
</svg>
